<?xml version="1.0" encoding="UTF-8" standalone="no"?>
<svg width="200" height="60" viewBox="0 0 200 60" xmlns="http://www.w3.org/2000/svg">
  <g fill="#4A4A4A">
    <path d="M20.5,10 L30.5,10 L30.5,50 L20.5,50 Z" />
    <path d="M40.5,10 L50.5,10 L50.5,50 L40.5,50 Z" />
    <path d="M60.5,10 L70.5,10 L70.5,50 L60.5,50 Z" />
    <path d="M80.5,10 L90.5,10 L90.5,50 L80.5,50 Z" />
    <path d="M100.5,10 L110.5,10 L110.5,50 L100.5,50 Z" />
    <path d="M120.5,10 L130.5,10 L130.5,50 L120.5,50 Z" />
    <path d="M140.5,10 L150.5,10 L150.5,50 L140.5,50 Z" />
    <path d="M160.5,10 L170.5,10 L170.5,50 L160.5,50 Z" />
    <path d="M10,20.5 L190,20.5 L190,30.5 L10,30.5 Z" />
    <path d="M10,40.5 L190,40.5 L190,50.5 L10,50.5 Z" />
  </g>
</svg>
