<?xml version="1.0" encoding="UTF-8" standalone="no"?>
<svg width="200" height="200" viewBox="0 0 200 200" xmlns="http://www.w3.org/2000/svg">
  <g fill="#3498DB">
    <path d="M100,20 C55.82,20 20,55.82 20,100 C20,144.18 55.82,180 100,180 C144.18,180 180,144.18 180,100 C180,55.82 144.18,20 100,20 Z M100,40 C133.14,40 160,66.86 160,100 C160,133.14 133.14,160 100,160 C66.86,160 40,133.14 40,100 C40,66.86 66.86,40 100,40 Z" />
    <path d="M60,100 L140,100 M100,60 L100,140" stroke="#3498DB" stroke-width="10" />
    <circle cx="100" cy="100" r="20" fill="#3498DB" />
  </g>
</svg>
