<?xml version="1.0" encoding="UTF-8" standalone="no"?>
<svg width="200" height="200" viewBox="0 0 200 200" xmlns="http://www.w3.org/2000/svg">
  <g fill="#F28C38">
    <path d="M100,20 C55.82,20 20,55.82 20,100 C20,144.18 55.82,180 100,180 C144.18,180 180,144.18 180,100 C180,55.82 144.18,20 100,20 Z M100,40 C133.14,40 160,66.86 160,100 C160,133.14 133.14,160 100,160 C66.86,160 40,133.14 40,100 C40,66.86 66.86,40 100,40 Z" />
    <path d="M100,60 C77.91,60 60,77.91 60,100 C60,122.09 77.91,140 100,140 C122.09,140 140,122.09 140,100 C140,77.91 122.09,60 100,60 Z M100,80 C111.05,80 120,88.95 120,100 C120,111.05 111.05,120 100,120 C88.95,120 80,111.05 80,100 C80,88.95 88.95,80 100,80 Z" />
    <path d="M100,10 L100,30 M100,170 L100,190 M10,100 L30,100 M170,100 L190,100" stroke="#F28C38" stroke-width="10" />
  </g>
</svg>
